<svg width="150.932" height="45.894541" xmlns="http://www.w3.org/2000/svg" xmlns:svg="http://www.w3.org/2000/svg">
  <metadata id="metadata2998">image/svg+xml</metadata>
  <g>
    <title>Layer 1</title>
    <path fill="#d40000" fill-rule="nonzero" stroke="#000000" stroke-width="0" stroke-linecap="round" stroke-miterlimit="4" d="m40.61708,22.5902a18.97794,18.97794 0 1 1 -37.95588,0a18.97794,18.97794 0 1 1 37.95588,0z" id="path5238"/>
    <path fill="#183c8b" stroke="#183c8b" stroke-width="1.0027" id="path2992" d="m51.71525,17.85348c0,-1.16462 0,-3.85715 -0.31146,-4.84431c-0.43222,-1.23559 -1.76219,-1.23559 -2.80485,-1.23559l0,-0.98156l16.1462,0l0,5.49807l-0.74368,0c-0.62293,-4.26061 -2.31267,-4.5165 -5.75294,-4.5165l-2.33765,0c-0.49218,0 -0.71953,-0.03642 -0.8153,0.14196c-0.05913,0.1485 -0.02332,0.54729 -0.02332,1.3486l0,8.63048c4.44712,0.21947 5.0942,-1.85479 5.28657,-4.47634l0.75451,0c-0.03581,1.63999 -0.07162,3.3164 -0.13158,4.95639c0.05996,1.49243 0.09577,3.02034 0.13158,4.51183l-0.75451,0c-0.45637,-3.82166 -2.16943,-4.00564 -5.28657,-4.00564l0,5.97344c0,1.09364 0,2.80554 0.57463,3.67877c0.85111,1.27762 2.86481,1.343 4.1598,1.31311c3.38031,-0.07658 5.58554,-0.54729 6.00527,-4.88447l0.75451,0l-0.29897,5.86604l-17.66854,0l0,-0.83774c1.04266,0 2.37346,0 2.80485,-1.23653c0.31146,-0.98623 0.31146,-3.67877 0.31146,-4.84431l0,-10.05567l-0.00001,-0.00003zm43.22364,3.1679l-0.57546,0c-0.19071,-3.38831 -2.15693,-5.84082 -5.28574,-5.84082c-5.26159,0 -6.40168,5.4467 -6.40168,10.22938c0,4.54265 1.57065,8.99378 6.161,8.99378c2.69658,0 4.50708,-1.42051 4.50708,-4.53705c0,-2.03411 -0.68289,-2.42262 -2.32599,-2.57579l0,-0.70045l7.07208,0l0,0.70045c-1.46239,-0.03082 -1.67808,0.78731 -1.67808,2.29935l0,3.209c-1.96539,0 -2.13362,0.24562 -3.7992,1.27202c-1.37827,0.78731 -2.69742,1.14967 -4.24391,1.14967c-5.26159,0 -9.06162,-3.87302 -9.06162,-9.86608c0,-6.17797 3.7992,-10.87379 9.44554,-10.87379c1.98954,0 3.99158,0.54635 5.60886,1.91083l0.57546,-1.36448l0.28815,0l-0.28648,5.99399l-0.00001,-0.00001zm7.27528,3.90945c0,-6.02481 4.69945,-10.44885 9.91274,-10.44885c5.15333,0 9.68539,4.24099 9.68539,10.23405c0,6.20786 -4.33969,10.50582 -9.79365,10.50582c-5.26159,-0.00093 -9.80448,-4.20644 -9.80448,-10.29102zm3.38031,0c0,4.75186 1.66642,9.47382 6.58073,9.47382c4.80605,0 6.26844,-5.05352 6.26844,-9.56535c0,-4.54265 -1.67808,-9.54013 -6.425,-9.54013c-4.67447,-0.00093 -6.42417,5.14971 -6.42417,9.63166zm22.31803,-5.66711c-0.69538,-1.93698 -1.01851,-3.62833 -3.26039,-3.71986l0,-0.69485c1.27084,0.03082 2.52919,0.08686 3.80004,0.11768c1.32997,-0.03082 2.64912,-0.08686 3.96743,-0.11768l0,0.69485c-0.77949,0 -2.09781,0 -2.09781,1.23653c0,1.06282 1.61728,5.69793 2.0495,6.96434l2.75738,7.69468l2.565,-7.02505c0.47886,-1.48682 2.02619,-6.05469 2.02619,-7.38835c0,-1.51297 -1.09096,-1.48215 -2.10947,-1.48215l0,-0.69485c1.01934,0.03082 2.0495,0.08686 3.07967,0.11768c0.93523,-0.03082 1.88211,-0.08686 2.829,-0.11768l0,0.69485c-2.34931,-0.03082 -2.80485,2.54497 -3.51272,4.59869l-5.47728,15.29317l-0.80281,0l-5.81373,-16.172zm-54.51382,4.08316l-3.18793,0l0,3.58164l3.18793,0l0,-3.58164z"/>
    <path fill="#ffff00" fill-rule="nonzero" stroke="#ffffff" stroke-width="0" stroke-linecap="round" stroke-miterlimit="4" d="m37.54428,22.74178a15.80255,15.80255 0 1 1 -31.6051,0a15.80255,15.80255 0 1 1 31.6051,0z" id="path3778"/>
    <path fill="#89a02c" fill-rule="nonzero" stroke="#000000" stroke-width="0" stroke-linecap="round" stroke-miterlimit="4" d="m27.15583,36.77577l17.39142,-18.28441l-34.687,13.85324l23.17623,10.50678l-24.20661,-27.94403l-3.06772,24.77796l19.72649,-31.1236l-25.07219,4.80683l36.39825,8.70859l-12.42774,-21.80717l2.76886,36.50581l0.00001,0z" id="path3782"/>
  </g>
</svg>