<svg width="140.932" height="45.894541" xmlns="http://www.w3.org/2000/svg" xmlns:svg="http://www.w3.org/2000/svg">
  <metadata id="metadata2998">image/svg+xml</metadata>
  <g>
    <title>Layer 1</title>
    <path id="path5238" d="m40.61708,22.5902a18.97794,18.97794 0 1 1 -37.95588,0a18.97794,18.97794 0 1 1 37.95588,0z" stroke-miterlimit="4" stroke-linecap="round" stroke-width="0" stroke="#000000" fill-rule="nonzero" fill="#d40000"/>
    <path id="path3778" d="m37.54428,22.74178a15.80255,15.80255 0 1 1 -31.6051,0a15.80255,15.80255 0 1 1 31.6051,0z" stroke-miterlimit="4" stroke-linecap="round" stroke-width="0" stroke="#ffffff" fill-rule="nonzero" fill="#ffff00"/>
    <path id="path3782" d="m27.15583,36.77577l17.39142,-18.28441l-34.687,13.85324l23.17623,10.50678l-24.20661,-27.94403l-3.06772,24.77796l19.72649,-31.1236l-25.07219,4.80683l36.39825,8.70859l-12.42774,-21.80717l2.76886,36.50581l0.00001,0z" stroke-miterlimit="4" stroke-linecap="round" stroke-width="0" stroke="#000000" fill-rule="nonzero" fill="#89a02c"/>
    <text fill="#262ec9" stroke-width="0" stroke-dasharray="null" stroke-linejoin="null" stroke-linecap="null" x="77.96928" y="25.56921" id="svg_1" font-size="24" font-family="serif" text-anchor="middle" xml:space="preserve" transform="matrix(1.4576812730836208,0,0,1.4576812730836208,-20.182503405801512,-3.703163310594715) " stroke="#183c8b" font-weight="normal">e-Gov</text>
  </g>
</svg>