<svg width="450" height="140" xmlns="http://www.w3.org/2000/svg" xmlns:svg="http://www.w3.org/2000/svg">
  <!-- Created with SVG-edit - http://svg-edit.googlecode.com/ -->
  <metadata id="metadata827">image/svg+xml</metadata>
  <g id="g819">
    <title>Layer 1</title>
    <path fill="#c8d5f7" stroke="#5656ff" stroke-width="5" id="path829" d="m16.69629,30.88965l13.22754,0c5.58105,14.71615 11.16211,27.43229 16.74316,42.14844l16.83106,-42.14844l13.22754,0l0,65.61035l-8.65723,0c0,-19.28743 0.75,-39.82487 0.75,-59.1123l-17.66895,46.5l-8.92089,0l-17.91895,-47l1,59.6123l-8.61328,0l0,-65.61035z"/>
    <path fill="#c8d5f7" stroke="#5656ff" stroke-width="5" id="path831" d="m113.1123,51.9502q-6.5039,0 -10.2832,5.09765q-3.77929,5.05371 -3.77929,13.88672q0,8.83301 3.73535,13.93066q3.77929,5.05371 10.32714,5.05371q6.45997,0 10.23926,-5.09765q3.7793,-5.09766 3.7793,-13.88672q0,-8.74512 -3.7793,-13.84277q-3.77929,-5.14161 -10.23926,-5.14161l0,0.00001zm0,-6.85547q10.54688,0 16.56739,6.85547q6.02051,6.85546 6.02051,18.98437q0,12.08496 -6.02051,18.98438q-6.02051,6.85546 -16.56739,6.85546q-10.59082,0 -16.61132,-6.85546q-5.97657,-6.89942 -5.97657,-18.98438q0,-12.12891 5.97657,-18.98437q6.0205,-6.85547 16.61132,-6.85547z"/>
    <path fill="#c8d5f7" stroke="#5656ff" stroke-width="5" id="path833" d="m184.3916,70.68457q0,-8.9209 -3.6914,-13.97461q-3.64747,-5.09766 -10.06348,-5.09766q-6.41602,0 -10.10742,5.09766q-3.64746,5.05371 -3.64746,13.97461q0,8.9209 3.64746,14.01856q3.6914,5.05371 10.10742,5.05371q6.41601,0 10.06348,-5.05371q3.6914,-5.09766 3.6914,-14.01856zm-25.34375,-23.68652c4.60547,-1.38444 5.71094,-2.76888 13.81641,-2.65332q7.60547,0.36556 14.2959,7.61914q5.625,7.11914 5.625,18.7207q0,11.60156 -5.625,18.7207q-5.58106,7.11914 -14.5459,7.11914c-9.70508,0.20801 -13.59375,-2.7246 -15.73242,-4.90722l0,3.63281l-8.12989,0l0,-68.37891l8.12989,0c0.13867,6.87565 0.27734,13.75131 0.41601,20.62696z"/>
    <path fill="#c8d5f7" stroke="#5656ff" stroke-width="5" id="path835" d="m206.18848,46.28125l8.08593,0l0,49.21875l-8.08593,0l0,-49.21875zm0,-19.16016l8.08593,0l0,10.23926l-8.08593,0l0,-10.23926z"/>
    <path fill="#c8d5f7" stroke="#5656ff" stroke-width="5" id="path837" d="m231.14941,27.12109l8.08594,0l0,68.37891l-8.08594,0l0,-68.37891z"/>
    <path fill="#c8d5f7" stroke="#5656ff" stroke-width="5" id="path839" d="m298.20996,68.86914l0,3.95508l-37.17773,0q0.52734,8.34961 5.00976,12.74414q4.52637,4.35059 12.56836,4.35059q4.6582,0 9.00879,-1.14258q4.39453,-1.14258 8.70117,-3.42774l0,7.64649q-4.35058,1.8457 -8.9209,2.8125q-4.57031,0.96679 -9.27246,0.96679q-11.77734,0 -18.67675,-6.85546q-6.85547,-6.85547 -6.85547,-18.54493q0,-12.08496 6.5039,-19.16015q6.54785,-7.11914 17.62207,-7.11914q9.93164,0 15.68848,6.41601q5.80078,6.37207 5.80078,17.3584zm-8.08594,-2.37305q-0.0879,-6.63574 -3.73535,-10.59082q-3.60351,-3.95507 -9.58008,-3.95507q-6.76757,0 -10.85449,3.82324q-4.04297,3.82324 -4.6582,10.7666l28.82812,-0.04395z"/>
    <g font-weight="normal" font-size="90px" font-family="Sans-serif" text-anchor="start" fill="#f7c8d5" stroke="#fc0526" stroke-width="5" stroke-opacity="0.7" id="svg_10">
      <path fill="#f7c8d5" stroke="#fc0526" stroke-width="5" stroke-opacity="0.7" id="path842" d="m317.83301,29.88965l8.87695,0l0,65.61035l-8.87695,0l0,-65.61035z"/>
      <path fill="#f7c8d5" stroke="#fc0526" stroke-width="5" stroke-opacity="0.7" id="path844" d="m353.25293,37.18457l0,51.02051l10.72266,0q13.5791,0 19.86328,-6.15235q6.32812,-6.15234 6.32812,-19.42382q0,-13.1836 -6.32812,-19.292q-6.28418,-6.15234 -19.86328,-6.15234l-10.72266,0zm-8.87695,-7.29492l18.2373,0q19.07227,0 27.99317,7.9541q8.92089,7.91016 8.92089,24.78516q0,16.96289 -8.96484,24.91699q-8.96484,7.9541 -27.94922,7.9541l-18.2373,0l0,-65.61035z"/>
    </g>
  </g>
</svg>
