<svg width="110" height="50" xmlns="http://www.w3.org/2000/svg" xmlns:svg="http://www.w3.org/2000/svg">
 <title>JCS Logotype</title>
  <g fill="#f2e1e9" id="svg_5" stroke="#dd0478" stroke-width="2.6">
   <path d="m13.69825,46.73829c-2.26563,0 -4.34571,-0.45899 -6.24024,-1.37696c-1.89453,-0.91796 -3.4375,-2.20703 -4.6289,-3.86718l4.89257,-3.51563c0.54688,0.95703 1.33789,1.69922 2.37305,2.22656c1.03516,0.52735 2.23633,0.79102 3.60352,0.79102c2.32421,0 4.12108,-0.72266 5.39062,-2.16797c1.28906,-1.44531 1.9336,-3.47656 1.9336,-6.09375l0,-29.0332l5.97656,0l0,29.0625c0,2.94922 -0.51758,5.46875 -1.55274,7.55859c-1.03516,2.08985 -2.54883,3.68164 -4.54101,4.77539c-1.99219,1.09375 -4.39453,1.64063 -7.20703,1.64063z" id="svg_6"/>
   <path d="m51.52051,46.73829c-2.94922,0 -5.54688,-0.6543 -7.79297,-1.96289c-2.22656,-1.3086 -3.95508,-3.16407 -5.18554,-5.56641c-1.23048,-2.40234 -1.84571,-5.18555 -1.84571,-8.34961l0,-11.68945c0,-3.16406 0.61523,-5.94727 1.84571,-8.34961c1.23046,-2.40235 2.95898,-4.25781 5.18554,-5.56641c2.24609,-1.32812 4.84375,-1.99219 7.79297,-1.99219c2.4414,0 4.6875,0.52735 6.73828,1.58204c2.05078,1.03515 3.75977,2.50976 5.12696,4.42382c1.38671,1.91407 2.32421,4.13086 2.8125,6.65039l0,0l-6.12305,0l0,0c-0.3711,-1.32812 -0.9961,-2.50976 -1.875,-3.54492c-0.85938,-1.05469 -1.875,-1.86523 -3.04688,-2.43164c-1.17188,-0.5664 -2.38281,-0.84961 -3.63281,-0.84961c-1.73828,0 -3.26172,0.41992 -4.57031,1.25977c-1.3086,0.83984 -2.32422,2.02148 -3.04688,3.54492c-0.72266,1.50391 -1.08398,3.26172 -1.08398,5.27344l0,11.68945c0,1.99219 0.36132,3.75 1.08398,5.27344c0.72266,1.52344 1.73828,2.70508 3.04688,3.54492c1.30859,0.82031 2.83203,1.23047 4.57031,1.23047c1.26953,0 2.48047,-0.26367 3.63281,-0.79102c1.17188,-0.52734 2.1875,-1.30859 3.04688,-2.34375c0.8789,-1.03515 1.5039,-2.26562 1.875,-3.6914l0,0l6.12305,0l0,0c-0.48829,2.51953 -1.42579,4.73633 -2.8125,6.65039c-1.38672,1.91406 -3.10547,3.39844 -5.15625,4.45312c-2.05079,1.03516 -4.28712,1.55274 -6.70899,1.55274z" id="svg_7"/>
   <path d="m87.52637,46.73829c-2.05078,0 -3.99414,-0.19532 -5.83008,-0.58594c-1.83594,-0.39063 -3.55469,-0.97656 -5.15625,-1.75781c-1.58203,-0.78125 -3.0664,-1.75782 -4.45312,-2.92969l0,0l3.7207,-4.57031l0,0c1.62109,1.40625 3.4082,2.46093 5.36133,3.16406c1.95312,0.70312 4.07226,1.05469 6.35742,1.05469c3.08594,0 5.47852,-0.56641 7.17774,-1.69922c1.69921,-1.15235 2.54882,-2.77344 2.54882,-4.86328l0,-0.0293c0,-1.48438 -0.39063,-2.65625 -1.17187,-3.51563c-0.76172,-0.8789 -1.75782,-1.52344 -2.98828,-1.93359c-1.21094,-0.42969 -2.78321,-0.82031 -4.7168,-1.17188c-0.0586,-0.01953 -0.12696,-0.0293 -0.20508,-0.0293c-0.0586,0 -0.1172,-0.0098 -0.17578,-0.0293l-0.43945,-0.08789c-2.85157,-0.48828 -5.17579,-1.03515 -6.97266,-1.64062c-1.77734,-0.625 -3.30078,-1.74805 -4.57031,-3.36914c-1.26954,-1.64063 -1.9043,-3.96485 -1.9043,-6.97266l0,-0.0293c0,-2.63672 0.58594,-4.88281 1.75782,-6.73828c1.1914,-1.875 2.91991,-3.30078 5.18554,-4.27734c2.26562,-0.97657 4.99023,-1.46485 8.17383,-1.46485c1.52344,0 3.01758,0.16602 4.48242,0.49805c1.48437,0.33203 2.93945,0.83008 4.36524,1.49414c1.44531,0.64453 2.86131,1.46484 4.24804,2.46094l0,0l-3.39843,4.74609l0,0c-1.6211,-1.1914 -3.24219,-2.08008 -4.86329,-2.66601c-1.60156,-0.60547 -3.21289,-0.90821 -4.83398,-0.90821c-2.91016,0 -5.17578,0.58594 -6.79687,1.75782c-1.60157,1.15234 -2.40235,2.79296 -2.40235,4.92187l0,0.0293c0,1.46484 0.41015,2.61719 1.23047,3.45703c0.83984,0.83985 1.875,1.46485 3.10547,1.875c1.25,0.39063 2.97851,0.80078 5.18555,1.23047c0.0781,0.01953 0.14647,0.03906 0.20507,0.05859c0.0781,0 0.15625,0.0098 0.23438,0.0293c0.0977,0.01953 0.20507,0.03906 0.32226,0.05859c0.11719,0.01953 0.22461,0.03906 0.32227,0.05859c2.57812,0.52734 4.72656,1.15234 6.4453,1.875c1.73828,0.72266 3.18359,1.89453 4.33594,3.51562c1.17187,1.60157 1.75781,3.79883 1.75781,6.5918l0,0.05859c0,2.59766 -0.61524,4.82422 -1.8457,6.67969c-1.23047,1.83594 -3.01758,3.24219 -5.36133,4.21875c-2.32423,0.95703 -5.13673,1.43555 -8.4375,1.43555l0.00001,0.00002z" id="svg_8"/>
  </g>
</svg>