<svg width="200" height="50" xmlns="http://www.w3.org/2000/svg" xmlns:svg="http://www.w3.org/2000/svg">
 <title>SHREQ Logotype</title>
  <g clip-rule="nonzero" display="inline" fill="#b4eda4" fill-rule="nonzero" font-family="Arial" font-size="60px" font-style="normal" font-weight="normal" id="text4526" stroke="#4abf73" stroke-dashoffset="0" stroke-miterlimit="4" stroke-width="2.3">
   <path d="m3.17979,32.11171l5.00391,-0.4375q0.35546,3.00782 1.64062,4.94922q1.3125,1.91406 4.04688,3.11719q2.73437,1.17578 6.15234,1.17578q3.03516,0 5.35937,-0.90234q2.32422,-0.90235 3.44532,-2.46094q1.14843,-1.58594 1.14843,-3.44531q0,-1.88672 -1.09375,-3.28125q-1.09374,-1.42188 -3.60937,-2.37891q-1.61328,-0.62891 -7.13672,-1.94141q-5.52344,-1.33984 -7.73828,-2.51562q-2.87109,-1.50391 -4.29297,-3.71875q-1.39453,-2.24219 -1.39453,-5.00391q0,-3.03515 1.72266,-5.66015q1.72265,-2.65235 5.03125,-4.01953q3.30859,-1.36719 7.35547,-1.36719q4.45703,0 7.84765,1.44922q3.41797,1.42187 5.25,4.21093q1.83203,2.78907 1.96875,6.31641l-5.08594,0.38281q-0.41015,-3.80078 -2.78906,-5.74218q-2.35156,-1.94141 -6.97266,-1.94141q-4.8125,0 -7.02734,1.77734q-2.1875,1.75 -2.1875,4.23829q0,2.16015 1.55859,3.55468q1.53125,1.39453 7.98438,2.8711q6.48047,1.44921 8.88672,2.54296q3.5,1.61329 5.16797,4.10157q1.66797,2.46093 1.66797,5.6875q0,3.19922 -1.83204,6.04297q-1.83203,2.8164 -5.27734,4.40234q-3.41797,1.55859 -7.71094,1.55859q-5.4414,0 -9.13281,-1.58593q-3.66406,-1.58594 -5.76953,-4.75782q-2.07813,-3.19922 -2.1875,-7.21875z" fill="#b4eda4" id="path4528" stroke="#31a058" stroke-miterlimit="4" stroke-width="2.3"/>
   <path d="m42.55479,44.99062l0,-40.08594l5.30469,0l0,16.46094l20.83593,0l0,-16.46094l5.30469,0l0,40.08594l-5.30469,0l0,-18.89453l-20.83593,0l0,18.89453l-5.30469,0z" fill="#b4eda4" id="path4530" stroke="#31a058" stroke-miterlimit="4" stroke-width="2.3"/>
   <path d="m82.94151,44.99062l0,-40.08594l17.77344,0q5.35937,0 8.14843,1.09375q2.78907,1.06641 4.45703,3.80078q1.66797,2.73438 1.66797,6.04297q0,4.26563 -2.76172,7.19141q-2.76171,2.92578 -8.53125,3.71875q2.10547,1.01172 3.19922,1.99609q2.32422,2.13281 4.40235,5.33203l6.97265,10.91016l-6.67187,0l-5.30469,-8.33984q-2.32422,-3.60938 -3.82812,-5.52344q-1.50391,-1.91406 -2.70703,-2.67969q-1.17579,-0.76562 -2.40625,-1.06641q-0.90235,-0.1914 -2.95313,-0.1914l-6.15234,0l0,17.80078l-5.30469,0zm5.30469,-22.39453l11.40234,0q3.63672,0 5.6875,-0.73828q2.05078,-0.76563 3.11719,-2.40625q1.0664,-1.66797 1.0664,-3.60938q0,-2.84375 -2.07812,-4.67578q-2.05078,-1.83203 -6.50781,-1.83203l-12.6875,0l0,13.26172z" fill="#b4eda4" id="path4532" stroke="#31a058" stroke-miterlimit="4" stroke-width="2.3"/>
   <path d="m123.4376,44.99062l0,-40.08594l28.98438,0l0,4.73047l-23.67969,0l0,12.27734l22.17578,0l0,4.70313l-22.17578,0l0,13.64453l24.60937,0l0,4.73047l-29.91406,0z" fill="#b4eda4" id="path4534" stroke="#31a058" stroke-miterlimit="4" stroke-width="2.3"/>
   <path d="m191.11338,40.69765q3.69141,2.54297 6.8086,3.71875l-1.5586,3.69141q-4.32031,-1.5586 -8.61328,-4.92188q-4.45703,2.48828 -9.84375,2.48828q-5.4414,0 -9.87109,-2.625q-4.42969,-2.625 -6.83594,-7.38281q-2.37891,-4.75781 -2.37891,-10.71875q0,-5.93359 2.40625,-10.80078q2.40625,-4.86719 6.83594,-7.41016q4.45703,-2.54297 9.95313,-2.54297q5.55078,0 10.00781,2.65235q4.45703,2.625 6.78125,7.38281q2.35156,4.73047 2.35156,10.69141q0,4.94922 -1.5039,8.91406q-1.50391,3.9375 -4.53907,6.86328zm-11.67578,-6.78125q4.59375,1.28516 7.57422,3.82813q4.67578,-4.26563 4.67578,-12.82422q0,-4.86719 -1.66797,-8.50391q-1.64062,-3.63672 -4.83984,-5.63281q-3.17188,-2.02344 -7.13672,-2.02344q-5.93359,0 -9.84375,4.07422q-3.91016,4.04687 -3.91016,12.11328q0,7.82031 3.85547,12.00391q3.88282,4.18359 9.89844,4.18359q2.84375,0 5.35938,-1.06641q-2.48829,-1.61328 -5.25,-2.29687l1.28515,-3.85547z" fill="#b4eda4" id="path4536" stroke="#31a058" stroke-miterlimit="4" stroke-width="2.3"/>
  </g>
</svg>
