<svg
   xmlns="http://www.w3.org/2000/svg"
   version="1.1"
   xml:space="preserve"
   viewBox="10 20 550 100"><g
     id="g4250"
     transform="matrix(1.25,0,0,-1.25,0,675)"><path
       id="path4373"
       d="m 50.557,517.89 c 5.143,-6.79 9.117,-13.38 9.139,-18.57 0.022,-5.19 -4.31,-12.48 -9.009,-12.57 -5.647,-0.1 -9.182,7.38 -9.204,12.57 -0.022,5.19 5.619,13.24 9.074,18.57 z"
       style="fill:none;stroke:#d07c7a;stroke-width:3;stroke-linecap:butt;stroke-linejoin:round;stroke-miterlimit:10" /><g
       id="g4266" /><path
       d="m 84.378,492.38 c -4.868,-6.99 -9.91,-12.81 -14.839,-14.43 -4.929,-1.63 -13.2,0.24 -14.735,4.68 -1.845,5.34 4.178,11.01 9.107,12.64 4.929,1.62 14.329,-1.25 20.467,-2.89 z"
       style="fill:none;stroke:#d07c7a;stroke-width:3;stroke-linecap:butt;stroke-linejoin:round;stroke-miterlimit:10"
       id="path4284" /><g
       id="g4286" /><g
       id="g4296"><path
         d="m 70.964,452.2 c -8.151,2.47 -15.242,5.47 -18.31,9.65 -3.068,4.19 -3.849,12.63 -0.098,15.46 4.507,3.41 11.765,-0.57 14.833,-4.75 3.068,-4.19 3.236,-14.02 3.575,-20.36 z"
         style="fill:none;stroke:#d07c7a;stroke-width:3;stroke-linecap:butt;stroke-linejoin:round;stroke-miterlimit:10"
         id="path4304" /></g><g
       id="g4306" /><g
       id="g4216"><g
         id="g4318"
         clip-path="url(#clipPath4320)"><path
           d="m 29.111,452.96 c -0.171,8.52 0.49,16.19 3.523,20.4 3.033,4.21 10.821,7.56 14.674,4.87 4.631,-3.23 3.093,-11.37 0.06,-15.58 -3.033,-4.21 -12.329,-7.41 -18.257,-9.69 z"
           style="fill:none;stroke:#d07c7a;stroke-width:3;stroke-linecap:butt;stroke-linejoin:round;stroke-miterlimit:10"
           id="path4324" /></g></g><g
       id="g4326"><g
         id="g4328"
         clip-path="url(#clipPath4330)"><path
           d="m 16.371,493.11 c 8.046,2.8 15.545,4.54 20.487,2.95 4.943,-1.58 10.537,-7.95 9.168,-12.45 -1.646,-5.4 -9.854,-6.45 -14.796,-4.87 -4.942,1.59 -10.856,9.44 -14.859,14.37 z"
           style="fill:#ffffff;fill-opacity:1;fill-rule:evenodd;stroke:none"
           id="path4334" /></g></g><g
       id="g4336"><g
         id="g4338"
         clip-path="url(#clipPath4340)"><path
           d="m 16.371,493.11 c 8.046,2.8 15.545,4.54 20.487,2.95 4.943,-1.58 10.537,-7.95 9.168,-12.45 -1.646,-5.4 -9.854,-6.45 -14.796,-4.87 -4.942,1.59 -10.856,9.44 -14.859,14.37 z"
           style="fill:none;stroke:#d07c7a;stroke-width:3;stroke-linecap:butt;stroke-linejoin:round;stroke-miterlimit:10"
           id="path4344" /></g></g><path
       d="m 42.796,481.75 c 0,4.24 3.441,7.68 7.686,7.68 4.245,0 7.686,-3.44 7.686,-7.68 0,-4.25 -3.441,-7.69 -7.686,-7.69 -4.245,0 -7.686,3.44 -7.686,7.69 z"
       style="fill:#f6f00a;fill-opacity:1;fill-rule:evenodd;stroke:none"
       id="path4346" /><path
       d="m 42.796,481.75 c 0,4.24 3.441,7.68 7.686,7.68 4.245,0 7.686,-3.44 7.686,-7.68 0,-4.25 -3.441,-7.69 -7.686,-7.69 -4.245,0 -7.686,3.44 -7.686,7.69 z"
       style="fill:none;stroke:#d07c7a;stroke-width:2.25;stroke-linecap:butt;stroke-linejoin:round;stroke-miterlimit:10"
       id="path4348" /><g
       id="text4350"
       style="fill:#78a6de;fill-opacity:1;fill-rule:nonzero;stroke:none"
       transform="matrix(0.94869278,0,-0.21619931,-0.94869278,80.952,452.14)"><path
         id="path4407"
         style=""
         d="m 28.438574,-25.042247 0,25.042247 -5.751113,0 0,-24.906394 -20.7855182,-41.70689 6.5662312,0 15.260827,31.336773 q 0.679265,1.403815 1.901943,4.664288 l 0.181137,0 q 0.40756,-0.996256 0.72455,-1.720805 0.31699,-0.72455 17.434476,-34.280256 l 6.158672,0 -21.691205,41.571037 z" /><path
         id="path4409"
         style=""
         d="m 103.71137,0 -7.426629,-19.925115 -28.664996,0 L 60.374249,0 53.94387,0 l 25.26867,-66.613284 5.796397,0 L 110.14175,0 103.71137,0 Z m -21.691201,-59.956484 -0.181137,0 q -0.271706,1.494384 -0.769834,2.988768 -0.452843,1.449099 -11.456941,31.744331 l 24.725257,0 L 83.3787,-55.156342 q -0.905687,-2.445355 -1.358531,-4.800142 z" /></g><g
       id="text4354"
       style="fill:#78a6de;fill-opacity:1;fill-rule:nonzero;stroke:none"
       transform="matrix(0.94869278,0,-0.21619931,-0.94869278,193.03,452.14)"><path
         id="path4412"
         style=""
         d="m 6.1133877,-9.1927237 q 3.6227482,2.5812081 7.7889083,3.84917 4.211445,1.2679619 7.970047,1.2679619 7.653055,0 11.456941,-3.0340517 3.84917,-3.0340515 3.84917,-8.6945955 0,-2.898199 -1.132109,-5.026563 -1.086824,-2.173649 -3.486895,-4.166161 -2.354786,-1.992512 -10.279548,-6.475662 -7.200212,-4.030308 -10.143695,-6.611516 -2.9434833,-2.626493 -4.3472983,-5.524691 -1.3585305,-2.943483 -1.3585305,-6.837937 0,-7.607772 5.9775348,-12.453198 5.977534,-4.845425 15.215542,-4.845425 7.290781,0 12.860757,2.128364 l 0,6.385094 q -5.977535,-3.260473 -13.540022,-3.260473 -6.430378,0 -10.460685,3.12462 -4.030308,3.079336 -4.030308,8.241752 0,3.215189 1.132109,5.434123 1.132109,2.218933 3.803886,4.302013 2.717061,2.08308 9.509714,5.751113 9.238008,5.071848 12.770187,9.328577 3.53218,4.211445 3.53218,9.917273 0,8.1964681 -5.841682,12.9060408 -5.796397,4.6642884 -15.758955,4.6642884 -3.713316,0 -8.558742,-1.13210885 Q 8.2417523,-1.0868245 6.1133877,-2.4453551 l 0,-6.7473686 z" /></g><g
       id="text4358"
       style="fill:#78a6de;fill-opacity:1;fill-rule:nonzero;stroke:none"
       transform="matrix(0.94869278,0,-0.21619931,-0.94869278,248.14,452.14)"><path
         id="path4415"
         style=""
         d="m 67.292549,0 0,-46.325893 q 0,-3.079336 0.543412,-10.958814 l -0.181137,0 q -1.403815,4.211445 -2.264218,6.022819 L 42.069164,0 39.669093,0 16.257083,-50.899613 q -1.086825,-2.354786 -2.08308,-6.520947 l -0.181138,0 q 0.316991,3.803886 0.316991,10.460686 l 0,46.959874 -5.7058289,0 0,-66.613284 6.5209469,0 23.185589,50.944898 q 1.35853,2.898198 2.490639,6.4756623 l 0.271706,0 q 1.494384,-4.3020133 1.947228,-5.4794063 0.498127,-1.177394 23.683716,-51.941154 l 6.249241,0 0,66.613284 -5.660544,0 z" /></g><g
       id="text4362"
       style="fill:#78a6de;fill-opacity:1;fill-rule:nonzero;stroke:none"
       transform="matrix(0.94869278,0,-0.21619931,-0.94869278,335.62,452.14)"><path
         id="path4418"
         style=""
         d="m 14.35514,-66.613284 0,66.613284 -5.7963972,0 0,-66.613284 5.7963972,0 z" /></g><g
       id="text4366"
       style="fill:#78a6de;fill-opacity:1;fill-rule:nonzero;stroke:none"
       transform="matrix(0.94869278,0,-0.21619931,-0.94869278,367.56,452.14)"><path
         id="path4421"
         style=""
         d="M 54.61293,0 16.936348,-53.57139 q -1.901943,-2.852914 -2.535924,-4.16616 l -0.181137,0 q 0.181137,1.539668 0.181137,5.252985 l 0,52.484565 -5.7963969,0 0,-66.613284 6.0228189,0 37.13317,52.937409 q 1.267962,1.856659 2.717061,4.3925826 l 0.271706,0 Q 54.386508,-13.494737 54.386508,-16.43822 l 0,-50.175064 5.841682,0 0,66.613284 -5.61526,0 z" /></g></g></svg>